<?xml version="1.0" standalone="no"?><!DOCTYPE svg PUBLIC "-//W3C//DTD SVG 1.1//EN" "http://www.w3.org/Graphics/SVG/1.1/DTD/svg11.dtd"><svg t="1715740854905" class="icon" viewBox="0 0 1024 1024" version="1.1" xmlns="http://www.w3.org/2000/svg" p-id="2107" xmlns:xlink="http://www.w3.org/1999/xlink" width="256" height="256"><path d="M461.248 0c37.824 0 75.264 7.936 109.76 23.232 29.632 13.12 56.512 31.424 79.424 54.016l3.712 3.84 8.128-1.408 9.408-1.152 9.536-0.832 19.072-0.64c96.832 0 186.432 51.2 234.688 134.016a262.208 262.208 0 0 1 27.968 201.216l-1.728 5.76 3.648 4.224c34.688 42.944 55.168 95.488 58.624 150.336l0.512 16.512c0 47.168-12.608 93.44-36.48 134.08a265.856 265.856 0 0 1-75.584 83.328 269.44 269.44 0 0 1-87.68 41.28l-5.248 1.28-1.024 2.752a270.592 270.592 0 0 1-238.976 171.776L562.752 1024a270.848 270.848 0 0 1-189.248-77.248l-3.648-3.84-6.272 1.088a274.176 274.176 0 0 1-117.888-8.384l-16.192-5.376-15.872-6.4A269.632 269.632 0 0 1 88.96 812.8a262.272 262.272 0 0 1-27.968-201.152l1.728-5.76-3.648-4.224a265.6 265.6 0 0 1-58.624-150.336L0 434.88c0-47.168 12.672-93.568 36.608-134.208a265.856 265.856 0 0 1 75.52-83.264 269.44 269.44 0 0 1 87.68-41.344l5.12-1.28 1.152-2.752A270.656 270.656 0 0 1 445.056 0.384L461.248 0z m223.488 509.056v244.224a50.56 50.56 0 0 1-25.92 44.288l-178.496 101.696 8.832 4.8c19.264 9.472 40.32 15.232 61.888 16.896l13.056 0.512c93.056-0.192 168.256-74.368 168.32-165.76l0.128-219.392-47.808-27.264z m-83.584 149.248l-214.4 122.24a51.776 51.776 0 0 1-51.584 0l-179.2-102.08c0 24.448 5.44 48.256 15.744 70.016l6.784 12.8c14.72 25.216 35.968 46.144 61.568 60.672a170.368 170.368 0 0 0 168.32 0.064l192.768-109.696v-54.016z m42.432-322.688l-47.488 27.072 213.952 121.792a51.2 51.2 0 0 1 15.104 13.056l3.84 5.568c4.48 7.744 6.912 16.576 6.912 25.6l-0.064 204.032 7.36-4.224a165.504 165.504 0 0 0 76.8-127.232l0.384-12.16c0-29.056-7.744-57.6-22.464-82.752a167.04 167.04 0 0 0-61.504-60.736l-192.832-110.016zM188.032 291.2l-9.088 5.504a164.224 164.224 0 0 0 8.768 281.6l192.64 109.952 47.488-27.008-213.76-121.728a51.2 51.2 0 0 1-15.232-13.056l-3.776-5.568a50.56 50.56 0 0 1-7.04-25.728V291.2zM512 410.56l-89.152 50.816v101.12L512 613.248l89.152-50.752v-101.12L512 410.496z m-52.288-308.032c-92.928 0-168.192 74.24-168.32 165.632l-0.128 219.392 47.808 27.2 0.192-244.032a50.56 50.56 0 0 1 3.968-19.712l3.072-6.016a51.072 51.072 0 0 1 18.944-18.56l178.304-101.76-8.704-4.672a170.304 170.304 0 0 0-62.08-16.96l-13.056-0.512z m240 77.184c-29.44 0-58.496 7.68-84.096 22.272l-192.704 109.44v54.08l214.4-122.112a51.84 51.84 0 0 1 19.072-6.464l6.784-0.448c9.024 0 17.92 2.368 25.728 6.848l179.072 102.08-0.32-10.816c-5.44-82.816-72.704-149.12-156.8-154.496l-11.072-0.384z" p-id="2108" fill="#409EFE"></path></svg>