<svg t="1716197004236" class="icon" viewBox="0 0 1024 1024" version="1.1" xmlns="http://www.w3.org/2000/svg" p-id="4957" width="200" height="200"><path d="M747.52 1024c-5.12 0-10.24-5.12-15.36-10.24l-71.68-174.08-138.24 143.36c-5.12 5.12-5.12 5.12-10.24 5.12-10.24-5.12-15.36-10.24-15.36-15.36V312.32c0-5.12 5.12-10.24 10.24-15.36h5.12c5.12 0 5.12 0 10.24 5.12l496.64 424.96c5.12 5.12 5.12 10.24 5.12 20.48 0 5.12-10.24 10.24-15.36 10.24h-194.56l71.68 194.56c5.12 10.24 0 15.36-10.24 20.48l-128 51.2z m-71.68-276.48c5.12 0 5.12 5.12 10.24 5.12l81.92 225.28 71.68-30.72-87.04-225.28v-10.24c0-5.12 5.12-5.12 10.24-5.12H921.6l-373.76-312.32v486.4l117.76-128c5.12-5.12 5.12-5.12 10.24-5.12z" fill="#409EFE" p-id="4958"></path><path d="M76.8 788.48c-40.96 0-76.8-35.84-76.8-76.8V76.8C0 35.84 35.84 0 76.8 0h788.48c40.96 0 76.8 35.84 76.8 76.8V409.6c0 10.24-20.48 20.48-30.72 20.48-10.24 0-25.6-10.24-25.6-20.48V92.16c0-20.48-15.36-35.84-35.84-35.84H92.16c-20.48 0-35.84 15.36-35.84 35.84v604.16c0 20.48 15.36 35.84 35.84 35.84h184.32c10.24 0 20.48 15.36 20.48 30.72 0 10.24-10.24 25.6-20.48 25.6H76.8z" fill="#409EFE" p-id="4959"></path></svg>