<?xml version="1.0" standalone="no"?><!DOCTYPE svg PUBLIC "-//W3C//DTD SVG 1.1//EN" "http://www.w3.org/Graphics/SVG/1.1/DTD/svg11.dtd"><svg t="1715741166690" class="icon" viewBox="0 0 1024 1024" version="1.1" xmlns="http://www.w3.org/2000/svg" p-id="5472" xmlns:xlink="http://www.w3.org/1999/xlink" width="256" height="256"><path d="M192 106.666667h119.445333a106.666667 106.666667 0 0 1 70.869334 26.944l59.626666 52.992A21.333333 21.333333 0 0 0 456.106667 192H768a170.666667 170.666667 0 0 1 170.666667 170.666667v384a170.666667 170.666667 0 0 1-170.666667 170.666666H256a170.666667 170.666667 0 0 1-170.666667-170.666666V213.333333a106.666667 106.666667 0 0 1 106.666667-106.666666z m0 64a42.666667 42.666667 0 0 0-42.666667 42.666666v533.333334a106.666667 106.666667 0 0 0 106.666667 106.666666h512a106.666667 106.666667 0 0 0 106.666667-106.666666V362.666667a106.666667 106.666667 0 0 0-106.666667-106.666667H456.106667a85.333333 85.333333 0 0 1-56.682667-21.546667l-59.626667-53.013333A42.666667 42.666667 0 0 0 311.445333 170.666667H192z m320 535.658666l-89.792 41.088a40.682667 40.682667 0 0 1-57.322667-41.664l11.328-98.069333-66.816-72.704a40.682667 40.682667 0 0 1 21.888-67.392l96.789334-19.52 48.490666-86.016a40.682667 40.682667 0 0 1 70.869334 0l48.469333 86.016 96.789333 19.52a40.682667 40.682667 0 0 1 21.909334 67.413333l-66.837334 72.682667 11.349334 98.069333a40.682667 40.682667 0 0 1-57.344 41.664L512 706.325333zM485.333333 648.106667a64 64 0 0 1 53.269334 0l52.16 23.872-6.592-56.981334a64 64 0 0 1 16.469333-50.666666l38.826667-42.218667-56.234667-11.349333a64 64 0 0 1-43.093333-31.296L512 429.525333l-28.16 49.962667a64 64 0 0 1-43.093333 31.296l-56.234667 11.349333 38.826667 42.24a64 64 0 0 1 16.448 50.645334l-6.570667 56.96 52.138667-23.850667z" fill="#409efe" p-id="5473"></path></svg>