<svg t="1716172844327" class="icon" viewBox="0 0 1024 1024" version="1.1" xmlns="http://www.w3.org/2000/svg" p-id="4835" width="200" height="200"><path d="M893.72 591.76a33.66 33.56 0 1 0 67.32 0 33.66 33.56 0 1 0-67.32 0Z" p-id="4836" fill="#409EFE"></path><path d="M927.38 686a33.65 33.65 0 0 0-33.66 33.57v80.61a62.5 62.5 0 0 1-62.43 62.43H192.71a62.5 62.5 0 0 1-62.43-62.43V225.07a62.5 62.5 0 0 1 62.43-62.43h221.38L496.27 305a33.64 33.64 0 0 0 32.85 16.54h302.07A62.49 62.49 0 0 1 893.62 384v79.9a33.67 33.67 0 0 0 67.33 0 21 21 0 0 0-0.1-2.48v-77.33A129.39 129.39 0 0 0 877 263a125.5 125.5 0 0 0-125.32-125.33H477l-14.35-24.92c-6.29-11-15.89-16.74-27.8-16.74h-0.16l-0.09-0.1H192.31A129.51 129.51 0 0 0 63 225.27v573.46a129.51 129.51 0 0 0 129.31 129.36h639.28A129.51 129.51 0 0 0 961 798.73V722a21 21 0 0 0 0.1-2.48A33.66 33.66 0 0 0 927.38 686zM515.55 204.4h231.14a62.27 62.27 0 0 1 61.23 50.34H544.58z" p-id="4837" fill="#409EFE"></path></svg>