<svg t="1716175506366" class="icon" viewBox="0 0 1024 1024" version="1.1" xmlns="http://www.w3.org/2000/svg" p-id="19998" width="200" height="200"><path d="M331.2 300.5h361.6c18.7 0 33.9-15.2 33.9-33.9s-15.2-33.9-33.9-33.9H331.2c-18.7 0-33.9 15.2-33.9 33.9s15.1 33.9 33.9 33.9z m0 271.2h361.6c18.7 0 33.9-15.2 33.9-33.9s-15.2-33.9-33.9-33.9H331.2c-18.7 0-33.9 15.2-33.9 33.9s15.1 33.9 33.9 33.9z m0-135.6h361.6c18.7 0 33.9-15.2 33.9-33.9s-15.2-33.9-33.9-33.9H331.2c-18.7 0-33.9 15.2-33.9 33.9s15.1 33.9 33.9 33.9z m135.6 203.4H331.2c-18.7 0-33.9 15.2-33.9 33.9s15.2 33.9 33.9 33.9h135.6c18.7 0 33.9-15.2 33.9-33.9s-15.2-33.9-33.9-33.9zM872 924.6l-54.3-66.8c13.7-17.2 20.4-41.2 20.2-72.1-0.5-69.2-35.3-103.6-104.6-103.1S629.7 718 630.2 787.2s35.3 103.6 104.6 103.1c18.2-0.1 33.9-2.6 47.3-7.5l56.3 69.2c7.6 9.3 21.2 10.7 30.5 3.2 9.2-7.6 10.6-21.3 3.1-30.6z m-138-73c-43.1 0-64.7-21.6-64.7-64.7s21.6-64.7 64.7-64.7 64.7 21.6 64.7 64.7c0 43.2-21.6 64.7-64.7 64.7z" fill="#409EFE" p-id="19999"></path><path d="M574.4 867h-305c-23.3 0-42.2-18.9-42.2-42.2V190.5c0-23.3 18.9-42.2 42.2-42.2h485.1c23.3 0 42.2 18.9 42.2 42.2V640c4.9-0.3 9.8-0.5 14.8-0.5 24.2 0 47.6 3.6 69.6 10.4V148.3c0-46.6-37.8-84.3-84.4-84.3H227.3c-46.6 0-84.4 37.7-84.4 84.3V867c0 46.6 37.8 84.4 84.4 84.4h358.8c-7.7-23.4-11.9-48.5-11.9-74.5 0-3.4 0-6.7 0.2-9.9z" fill="#409EFE" p-id="20000"></path></svg>