<svg t="1716175400556" class="icon" viewBox="0 0 1024 1024" version="1.1" xmlns="http://www.w3.org/2000/svg" p-id="15356" width="200" height="200"><path d="M730.492 991.707c-139.125 0-251.901-112.725-251.901-251.783 0-139.05 112.777-251.782 251.901-251.782 139.13 0 251.905 112.732 251.905 251.782 0 139.058-112.776 251.783-251.905 251.783zM730.614 535.999c-112.659 0-203.999 91.341-203.999 203.999s91.341 203.999 203.999 203.999 203.999-91.341 203.999-203.999-91.34-203.999-203.999-203.999zM833.022 822.845l-124.055-48.525c-0.047-0.028-0.075-0.075-0.145-0.098-1.317-0.577-2.348-1.561-3.548-2.348-1.298-0.844-2.766-1.491-3.844-2.569-2.878-2.883-4.608-6.647-5.662-10.706-0.553-1.969-1.106-3.891-1.153-5.953l0-121.584c0-12.741 10.322-23.062 23.063-23.062l1.875 0c12.741 0 23.063 10.322 23.063 23.062l0 106.078 105.459 41.259c11.4 4.463 17.302 18.023 13.148 30.309-4.177 12.267-16.8 18.6-28.2 14.137zM766.614 199.761c0-26.522-21.478-48-48-48l-48 0 0-47.761 48 0c53.016 0 96 42.984 96 96l0 252.142c-15.525-4.512-31.561-7.8-48-9.792l0-242.589zM623.551 224l-1.875 0c-12.741 0-23.062-10.319-23.062-23.064l0-145.87c0-12.745 10.322-23.064 23.062-23.064l1.875 0c12.741 0 23.062 10.319 23.062 23.064l0 145.87c0 12.744-10.322 23.064-23.062 23.064zM286.615 104l287.999 0 0 47.761-287.999 0 0-47.761zM239.55 224l-1.87 0c-12.745 0-23.064-10.319-23.064-23.064l0-145.87c-0.001-12.745 10.319-23.065 23.064-23.065l1.87 0c12.745 0 23.064 10.319 23.064 23.064l0 145.87c0 12.745-10.319 23.065-23.064 23.065zM238.615 366.703l0 2.592c0 12.553-10.153 22.703-22.703 22.703l-2.592 0c-12.55 0-22.703-10.15-22.703-22.703l0-2.592c0-12.553 10.153-22.703 22.703-22.703l2.592 0c12.55-0.001 22.703 10.15 22.703 22.703zM215.911 535.999l-2.592 0c-12.55 0-22.703-10.153-22.703-22.703l0-2.592c0-12.553 10.153-22.703 22.703-22.703l2.592 0c12.55 0 22.703 10.15 22.703 22.703l0 2.592c0 12.55-10.153 22.703-22.703 22.703zM238.615 657.292c0 12.553-10.153 22.706-22.703 22.706l-2.592 0c-12.55 0-22.703-10.153-22.703-22.706l0-2.587c0-12.553 10.153-22.706 22.703-22.706l2.592 0c12.55 0 22.703 10.153 22.703 22.706l0 2.587zM309.68 631.998l141.288 0c-5.977 15.459-10.969 31.416-14.33 48l-126.958 0c-12.745 0-23.064-10.322-23.064-23.063l0-1.847c-0.001-12.769 10.319-23.091 23.064-23.091zM286.615 369.511l0-3c0-12.431 10.08-22.511 22.488-22.511l363.021 0c12.412 0 22.491 10.081 22.491 22.511l0 3c0 12.408-10.078 22.488-22.491 22.488l-363.02 0c-12.408 0-22.489-10.08-22.489-22.488zM309.68 535.999c-12.745 0-23.064-10.322-23.064-23.064l0-1.87c0-12.745 10.319-23.064 23.064-23.064l258.527 0c-21.023 13.584-40.153 29.737-57.117 48l-201.41 0zM94.616 199.761l0 623.998c0 26.517 21.48 48 48 48l318.791 0c8.377 17.063 18.288 33.192 29.616 48.239l-348.407 0c-53.016 0-96-42.984-96-96l0-623.998c0-53.016 42.984-96 96-96l48 0 0 47.761-48 0c-26.52 0-48 21.478-48 48z" fill="#409EFE" p-id="15357"></path></svg>