<svg t="1716175287477" class="icon" viewBox="0 0 1024 1024" version="1.1" xmlns="http://www.w3.org/2000/svg" p-id="11716" width="200" height="200"><path d="M877.714286 0a109.714286 109.714286 0 0 1 109.714285 109.714286v638.537143a54.857143 54.857143 0 0 1-17.261714 39.954285l-234.697143 220.891429a54.857143 54.857143 0 0 1-37.595428 14.902857H146.285714a109.714286 109.714286 0 0 1-109.714285-109.714286V109.714286a109.714286 109.714286 0 0 1 109.714285-109.714286z m-18.285715 73.142857H164.571429l-3.218286 0.091429A54.857143 54.857143 0 0 0 109.714286 128v768l0.091428 3.218286A54.857143 54.857143 0 0 0 164.571429 950.857143h475.428571v-146.285714a109.714286 109.714286 0 0 1 109.714286-109.714286h164.571428V128l-0.091428-3.218286A54.857143 54.857143 0 0 0 859.428571 73.142857z m21.540572 694.857143H768l-3.218286 0.091429A54.857143 54.857143 0 0 0 713.142857 822.857143v107.227428L880.969143 768zM331.081143 329.142857v110.921143L440.356571 329.142857h48.713143l-103.350857 100.717714 118.820572 134.290286h-52.004572l-92.818286-108.946286-28.635428 27.977143v80.969143H292.571429V329.142857h38.509714z m304.128 0c23.369143 0 41.801143 5.595429 54.966857 16.786286 12.178286 10.532571 18.432 24.685714 18.432 42.459428 0 13.165714-3.291429 24.356571-9.545143 33.572572-6.253714 8.557714-15.140571 14.811429-26.989714 19.419428 15.469714 2.962286 26.989714 9.216 34.889143 18.761143 7.570286 9.216 11.52 22.052571 11.52 37.851429 0 23.698286-8.228571 41.142857-24.356572 52.333714-13.824 9.216-33.572571 13.824-58.587428 13.824h-107.958857V329.142857z m-4.278857 130.340572h-64.841143v73.069714h63.853714c14.482286 0 26.002286-2.304 34.230857-6.912 10.532571-5.924571 15.798857-15.140571 15.798857-28.306286 0-13.494857-3.949714-23.04-11.52-28.964571-7.899429-5.924571-20.406857-8.886857-37.522285-8.886857z m-5.266286-98.742858h-59.574857V427.885714h58.916571c16.457143 0 27.977143-2.962286 34.889143-8.228571 6.582857-5.595429 10.203429-14.482286 10.203429-26.660572 0-11.190857-3.620571-19.419429-10.203429-24.356571-7.241143-5.266286-18.432-7.899429-34.230857-7.899429z" fill="#409EFE" p-id="11717"></path></svg>