<svg t="1716908466716" class="icon" viewBox="0 0 1024 1024" version="1.1" xmlns="http://www.w3.org/2000/svg" p-id="6582" width="200" height="200"><path d="M89.933374 309.893571h308.475902a13.290646 13.290646 0 0 0 0-26.581293H89.933374a13.290646 13.290646 0 1 0 0 26.581293zM562.327248 870.271524H253.851346a13.290646 13.290646 0 0 0 0 26.581292h308.475902a13.290646 13.290646 0 0 0 0-26.581292zM562.327248 803.818292h-81.383058a13.290646 13.290646 0 1 0 0 26.581293h81.383058a13.290646 13.290646 0 0 0 0-26.581293zM562.327248 741.795276h-32.650688a13.290646 13.290646 0 1 0 0 26.581292h32.650688a13.290646 13.290646 0 0 0 0-26.581292zM89.933374 368.992645h52.542355a13.290646 13.290646 0 1 0 0-26.581293H89.933374a13.290646 13.290646 0 1 0 0 26.581293zM89.933374 431.015662h83.863978a13.290646 13.290646 0 0 0 0-26.581293h-84.174093a13.290646 13.290646 0 1 0 0 26.581293z" p-id="6583" fill="#409efe"></path><path d="M170.031669 342.411352a13.290646 13.290646 0 0 0 0 26.581293h85.32595a13.290646 13.290646 0 0 0 0-26.581293zM371.340659 715.213983a122.938479 122.938479 0 1 0-122.894176-122.894177 123.027083 123.027083 0 0 0 122.894176 122.894177z m0-219.251363a96.357186 96.357186 0 1 1-96.312884 96.357186 96.44579 96.44579 0 0 1 96.312884-96.357186z" p-id="6584" fill="#409efe"></path><path d="M371.340659 778.876179a186.822186 186.822186 0 1 0-160.19659-91.129532l-132.241932 132.463442a50.123458 50.123458 0 0 0 70.883447 70.883447l133.792507-134.235528a185.0501 185.0501 0 0 0 87.762568 22.018171z m0-346.575755a160.019382 160.019382 0 1 1-159.97508 160.019382 160.152289 160.152289 0 0 1 159.97508-160.019382z m-240.472094 439.654582a23.480142 23.480142 0 0 1-33.182314-33.182314l128.919269-128.91927a188.239855 188.239855 0 0 0 33.935451 32.429177z" p-id="6585" fill="#409efe"></path><path d="M928.883274 709.454703v-151.779182h-45.941334v-474.033053l-0.398719-1.63918c-16.923423-65.257074-86.211993-72.699836-120.501861-67.560786l-2.746733 0.39872-2.348015 1.506273c-3.49987 2.170806-6.822532 4.430215-10.012286 6.645323-26.581293-25.69525-66.453232-30.169767-109.116207-11.51856a154.393009 154.393009 0 0 0-17.720862 8.860431A123.292896 123.292896 0 0 0 573.579995 1.329065h-1.461971c-72.123908-3.101151-102.205071 49.086787-110.312365 85.325949H335.943238c-46.384356 6.423812-62.023016 71.459375-66.453232 99.635546H17.587955V1003.000779h610.705201V362.30302L465.925759 186.201956H296.735831c5.094748-26.581293 18.119581-68.934152 42.35286-73.18716h146.19711l1.329064-11.828675c0.310115-3.145453 9.214848-76.199706 83.775375-73.497274a102.825301 102.825301 0 0 1 27.290127 9.87938 80.319806 80.319806 0 0 0-22.151077 38.720083c-11.828675 49.529809 27.777451 98.173574 29.460932 100.211474l11.828676 14.265293 9.746474-15.815869c29.859652-48.377953 37.568227-89.135935 22.859911-121.166392a78.54772 78.54772 0 0 0-8.594618-14.309596c2.480921-1.284762 5.094748-2.525223 7.841482-3.677079 31.631738-13.822272 58.61175-12.227395 77.661677 4.075798-19.227135 18.385394-29.239422 37.966946-29.81535 58.523146-1.151856 41.289608 36.726486 68.756944 38.321363 69.9088l9.524964 6.77823 7.930085-8.550316c29.328026-31.587436 33.581033-83.731072 11.164143-122.584062l5.404863-3.588474c13.556459-1.373367 73.275764-4.430215 87.718266 46.694471v470.621787h-58.124427l3.189755 153.861383-94.850912 231.035736v2.791036c1.24046 59.6307 44.878083 77.484468 67.737994 78.636324h179.556632l1.63918-0.398719c50.105737-12.936229 50.681665-74.604828 50.681665-77.218656v-2.126503z m-327.171411 267.141992H44.169248V212.783248h397.390326V365.049753h149.342563a11.828675 11.828675 0 0 0 3.322662-0.487323l7.487064 8.151596z m-133.570996-748.706412l101.894955 110.755386h-101.894955z m145.931297-85.148741c-8.550316-15.151337-18.163883-38.409968-12.847625-60.339535a54.934672 54.934672 0 0 1 17.277841-27.954659 52.763866 52.763866 0 0 1 6.601021 10.676819c8.993337 19.670157 5.316259 45.719823-11.031237 77.528771z m126.349745-4.784633c-8.01869-8.461712-18.075279-22.461192-17.720862-38.897291 0.398719-12.670416 6.911136-25.340832 19.448646-37.878343a82.579216 82.579216 0 0 1-1.727784 76.775634z m85.060137 446.344207h76.819935v129.317989l37.922645 114.476768h-157.804275l45.808428-111.552825z m125.064982 413.117591H775.59782c-5.316259-0.398719-39.871939-4.873237-42.175652-49.928528l38.454271-93.699057a13.290646 13.290646 0 0 0 4.430215 0.886043h172.335381l31.011508 93.654755c-0.398719 8.328805-3.987194 41.33391-29.106515 49.086787z" p-id="6586" fill="#409efe"></path></svg>