<svg t="1716905035862" class="icon" viewBox="0 0 1024 1024" version="1.1" xmlns="http://www.w3.org/2000/svg" p-id="5236" width="200" height="200"><path d="M705.422222 221.866667c-11.377778-11.377778-28.444444-22.755556-51.2-22.755556H187.733333c-39.822222 0-68.266667 34.133333-68.266666 73.955556V853.333333c0 39.822222 28.444444 68.266667 68.266666 68.266667H739.555556c39.822222 0 68.266667-28.444444 68.266666-68.266667V352.711111c0-17.066667-5.688889-34.133333-22.755555-51.2l-79.644445-79.644444z m-176.355555 568.888889c-17.066667 5.688889-28.444444-11.377778-17.066667-22.755556 96.711111-91.022222 11.377778-199.111111-79.644444-250.311111 5.688889 28.444444 22.755556 79.644444-11.377778 125.155555 5.688889-39.822222-28.444444-68.266667-28.444445-68.266666 0 56.888889-28.444444 68.266667-39.822222 108.088889-11.377778 34.133333 5.688889 68.266667 34.133333 91.022222 11.377778 5.688889 0 28.444444-22.755555 22.755555-102.4-56.888889-125.155556-108.088889-113.777778-182.044444 11.377778-56.888889 51.2-96.711111 56.888889-153.6 17.066667 28.444444 17.066667 45.511111 17.066667 79.644444 51.2-62.577778 102.4-142.222222 91.022222-221.866666 0 0 96.711111 28.444444 130.844444 176.355555 22.755556-22.755556 22.755556-62.577778 11.377778-85.333333 34.133333 17.066667 227.555556 233.244444-28.444444 381.155556z" p-id="5237" fill="#F65858"></path><path d="M893.155556 256l-147.911112-147.911111c-5.688889-5.688889-17.066667-11.377778-28.444444-11.377778H256c-17.066667 0-45.511111 17.066667-45.511111 56.888889h483.555555c11.377778 0 22.755556 5.688889 28.444445 11.377778l119.466667 125.155555c5.688889 5.688889 11.377778 17.066667 11.377777 28.444445v523.377778c22.755556 0 51.2-17.066667 51.2-39.822223V284.444444c0-11.377778-5.688889-22.755556-11.377777-28.444444z" p-id="5238" fill="#ff6666"></path></svg>