<svg t="1716182161910" class="icon" viewBox="0 0 1181 1024" version="1.1" xmlns="http://www.w3.org/2000/svg" p-id="23158" width="200" height="200"><path d="M580.77961928 191.51449556a42.80469896 42.80469896 0 0 0 0-62.15351819 46.88133702 46.88133702 0 0 0-64.49606383 0L151.21149665 480.95579306a42.80469896 42.80469896 0 0 0 0 62.12309574l365.0720588 351.56439249a46.88133702 46.88133702 0 0 0 64.49606383 0 42.80469896 42.80469896 0 0 0 0-62.15351741L248.01643764 511.98691812l332.82402727-320.47242256z m456.34007425 0a42.80469896 42.80469896 0 0 0 0-62.15351819 46.88133702 46.88133702 0 0 0-64.49606383 0l-365.07205955 351.56439325a42.80469896 42.80469896 0 0 0 0 62.12309498l365.07205955 351.56439326a46.88133702 46.88133702 0 0 0 64.49606383 0 42.80469896 42.80469896 0 0 0 0-62.15351818L704.35651113 511.98691812l332.82402727-320.47242256z" p-id="23159" fill="#004DB6"></path></svg>