<?xml version="1.0" standalone="no"?><!DOCTYPE svg PUBLIC "-//W3C//DTD SVG 1.1//EN" "http://www.w3.org/Graphics/SVG/1.1/DTD/svg11.dtd"><svg t="1715741215004" class="icon" viewBox="0 0 1024 1024" version="1.1" xmlns="http://www.w3.org/2000/svg" p-id="1438" xmlns:xlink="http://www.w3.org/1999/xlink" width="256" height="256"><path d="M611.8 923.3H412.2c0 56.6 43.5 100.4 99.8 100.4 56.2 0 99.8-43.9 99.8-100.4zM512 1.4c-41.7 0-72.6 34.7-72.6 77.6v34.7c-144.2 33.8-254.9 165.2-254.9 322.2v261L85.6 799.1v51.1h852.8v-51.1l-98.9-102.2v-261c0-157-110.7-288.4-254.9-323.1V79.9c0-36.5-20-69.4-54.4-76.7-6.4-1.8-12.8-1.8-18.2-1.8z m0 168.8l55.3 13.7c115.2 28.3 199.6 134.2 199.6 251.9v290.3l20.9 21 28.1 29.2H208.1l28.1-29.2 20.9-21V435.8c0-117.8 83.5-224.5 199.6-251.9l55.3-13.7z" fill="#333333" p-id="1439"></path></svg>