<?xml version="1.0" standalone="no"?><!DOCTYPE svg PUBLIC "-//W3C//DTD SVG 1.1//EN" "http://www.w3.org/Graphics/SVG/1.1/DTD/svg11.dtd"><svg t="1715741125057" class="icon" viewBox="0 0 1024 1024" version="1.1" xmlns="http://www.w3.org/2000/svg" p-id="4434" xmlns:xlink="http://www.w3.org/1999/xlink" width="256" height="256"><path d="M881.224122 0H364.673267a64 64 0 0 0-45.220522 18.721872L97.555356 240.619262a64 64 0 0 0-18.721873 45.220522v673.987399a64 64 0 0 0 64 64H881.224122a64 64 0 0 0 64-64V64A64 64 0 0 0 881.224122 0z m-14.747074 945.252925H157.522952V291.945995l213.141314-213.141315h495.755176z" fill="#409efe" p-id="4435"></path><path d="M275.672367 748.29883m39.40234 0l393.79298 0q39.40234 0 39.40234 39.40234l0-0.057606q0 39.40234-39.40234 39.402341l-393.79298 0q-39.40234 0-39.40234-39.402341l0 0.057606q0-39.40234 39.40234-39.40234Z" fill="#409efe" p-id="4436"></path><path d="M278.379838 494.430243l21.544554 21.544554a24.136814 24.136814 0 0 0 34.102611 0l77.249325-77.191719a24.079208 24.079208 0 0 1 34.10261 0L522.743474 516.147615a24.136814 24.136814 0 0 0 34.102611 0l190.09901-190.09901a20.738074 20.738074 0 0 0 2.880288-2.880288 22.69667 22.69667 0 0 0 1.152115-23.560756l-1.209721-1.209721a18.491449 18.491449 0 0 0-2.822682-2.822682l-23.042305-23.330334a24.079208 24.079208 0 0 0-34.10261 0L556.673267 405.19892a24.079208 24.079208 0 0 1-34.10261 0L445.263726 327.891989a24.079208 24.079208 0 0 0-34.10261 0l-133.011701 133.069307a24.079208 24.079208 0 0 0 0.230423 33.468947z" fill="#409efe" p-id="4437"></path></svg>