<?xml version="1.0" standalone="no"?><!DOCTYPE svg PUBLIC "-//W3C//DTD SVG 1.1//EN" "http://www.w3.org/Graphics/SVG/1.1/DTD/svg11.dtd"><svg t="1715740976765" class="icon" viewBox="0 0 1024 1024" version="1.1" xmlns="http://www.w3.org/2000/svg" p-id="3285" xmlns:xlink="http://www.w3.org/1999/xlink" width="256" height="256"><path d="M244.072422 374.434133c-5.005681 11.805512-19.752318 17.979953-32.430556 12.403989-12.378359-4.733995-18.282396-19.479351-12.943516-32.152463 7.048449-17.981235 16.486964-34.192668 26.226639-49.480114a378.437652 378.437652 0 0 1 35.940684-43.332585 280.427042 280.427042 0 0 1 43.910558-35.961188 275.658446 275.658446 0 0 1 49.544191-27.11987c12.678238-5.331191 27.723474 0.598477 32.429274 13.545838 5.60544 11.805512-0.598477 27.121151-13.276715 32.12555a264.739757 264.739757 0 0 0-40.973277 22.115471 333.234024 333.234024 0 0 0-36.267476 30.030239 267.88721 267.88721 0 0 0-30.062277 36.559666 275.207345 275.207345 0 0 0-22.092403 41.265467z m572.426356 383.462556l178.937061 179.45352a41.00916 41.00916 0 0 1 0.299879 58.950667 42.003632 42.003632 0 0 1-58.657195 0L757.541703 816.516719a444.40473 444.40473 0 0 1-116.117436 70.452455 450.588143 450.588143 0 0 1-172.734425 34.192669 455.128625 455.128625 0 0 1-173.632782-34.192669 456.816409 456.816409 0 0 1-244.940022-245.525684l-1.170043-2.040205a451.589022 451.589022 0 0 1-33.029033-170.933867 443.242377 443.242377 0 0 1 34.199076-172.399945A453.776605 453.776605 0 0 1 468.689842 15.778274 454.901794 454.901794 0 0 1 641.126951 50.242628l0.298598 0.298598v-0.298598a463.787966 463.787966 0 0 1 147.104982 98.450178l1.740326 2.040205a454.945366 454.945366 0 0 1 96.398438 144.707228l0.897075 2.365716a446.939609 446.939609 0 0 1-0.897075 343.640098 465.801259 465.801259 0 0 1-70.165391 116.450636zM610.163754 126.870806A371.431494 371.431494 0 0 0 126.461996 326.994224c-18.01071 43.604271-27.424876 91.373534-27.424875 141.475194a378.76957 378.76957 0 0 0 26.5278 139.980922l0.897075 1.467359a380.959715 380.959715 0 0 0 80.449719 120.259361 368.02517 368.02517 0 0 0 120.281147 80.163936c43.03655 17.950478 90.784027 27.690154 141.49698 27.690154a365.467224 365.467224 0 0 0 260.585016-107.282525l0.570284-0.571565a374.376464 374.376464 0 0 0 80.204946-120.259361c18.256765-43.032705 27.968247-91.044179 27.968246-141.449563a368.039267 368.039267 0 0 0-27.096802-139.13639l-0.871444-2.040205c-18.609188-44.22966-44.835827-84.59677-78.136547-118.190962l-2.068399-1.76852c-34.197795-34.165756-75.171071-61.884104-119.681388-79.864057v-0.597196z m101.100394 341.598612a25.41799 25.41799 0 0 1 25.056596-25.052752 25.007898 25.007898 0 0 1 25.057879 25.052752 297.604754 297.604754 0 0 1-22.391002 112.561172l-0.299879 0.598478a292.432473 292.432473 0 0 1-157.987788 157.38931 291.206043 291.206043 0 0 1-112.006267 22.658843 25.039937 25.039937 0 1 1 0-50.078592c31.525792 0 63.064398-6.499952 93.127957-18.278552a241.078753 241.078753 0 0 0 78.430018-52.744187 237.107272 237.107272 0 0 0 52.158525-77.796939l0.871444-1.170042a246.677785 246.677785 0 0 0 17.983798-93.139491z" fill="#3B3F51" p-id="3286"></path></svg>